<?xml version="1.0" encoding="utf-8"?>
<!-- Generator: Adobe Illustrator 24.0.2, SVG Export Plug-In . SVG Version: 6.00 Build 0)  -->
<svg version="1.1" id="Layer_1" xmlns="http://www.w3.org/2000/svg" xmlns:xlink="http://www.w3.org/1999/xlink" x="0px" y="0px"
	 viewBox="0 0 200 200" style="enable-background:new 0 0 200 200;" xml:space="preserve">
<g>
	<path d="M108.4,190H91.6c-5.7,0-10.5-4.3-11.1-9.9L78.7,166c-3.6-1.2-7-2.6-10.3-4.3l-11.2,8.7c-4.5,3.5-10.9,3.1-14.9-0.9
		l-11.8-11.8c-4-3.9-4.4-10.3-0.9-14.8l8.7-11.2c-1.7-3.3-3.1-6.7-4.3-10.3l-14.1-1.8c-5.6-0.7-9.9-5.5-9.9-11.2V91.6
		c0-5.7,4.3-10.5,9.9-11.1L34,78.7c1.2-3.6,2.6-7,4.3-10.3l-8.7-11.2c-3.5-4.5-3.1-11,1-14.9l11.8-11.8c3.9-4,10.3-4.4,14.8-0.9
		l11.2,8.7c3.3-1.7,6.7-3.1,10.3-4.3l1.8-14.1c0.7-5.6,5.5-9.9,11.1-9.9h16.8c5.7,0,10.5,4.3,11.1,9.9l1.8,14.1
		c3.6,1.2,7,2.6,10.3,4.3l11.2-8.7c4.6-3.5,10.9-3.1,14.9,1l11.8,11.8c4,3.9,4.4,10.3,0.9,14.8l-8.7,11.2c1.7,3.3,3.1,6.7,4.3,10.3
		l14.1,1.8c5.6,0.7,9.9,5.5,9.9,11.2v16.8c0,5.7-4.3,10.5-9.9,11.1l-14.1,1.8c-1.2,3.6-2.6,7-4.3,10.3l8.7,11.2
		c3.5,4.5,3.1,10.9-1,14.9l-11.8,11.8c-3.9,4-10.3,4.4-14.8,0.9l-11.2-8.7c-3.3,1.7-6.7,3.1-10.3,4.3l-1.8,14.1
		C118.9,185.7,114.1,190,108.4,190L108.4,190z M68,153.5c0.6,0,1.3,0.2,1.8,0.5c4.1,2.3,8.6,4.2,13.3,5.5c1.4,0.4,2.5,1.6,2.7,3.1
		l2.1,16.5c0.2,1.9,1.9,3.3,3.7,3.3h16.8c1.9,0,3.5-1.4,3.7-3.3l2.1-16.5c0.2-1.5,1.2-2.7,2.7-3.1c4.7-1.3,9.2-3.2,13.3-5.5
		c1.3-0.7,2.9-0.6,4.1,0.3l13.1,10.2c1.5,1.2,3.6,1.1,4.9-0.3l11.9-11.9c1.4-1.3,1.5-3.4,0.3-5l-10.2-13.1c-0.9-1.2-1.1-2.8-0.3-4.1
		c2.3-4.1,4.2-8.6,5.5-13.3c0.4-1.4,1.6-2.5,3.1-2.7l16.5-2.1c1.9-0.2,3.3-1.9,3.3-3.7V91.6c0-1.9-1.4-3.5-3.3-3.7l-16.5-2.1
		c-1.5-0.2-2.7-1.2-3.1-2.7c-1.3-4.7-3.2-9.2-5.5-13.3c-0.7-1.3-0.6-2.9,0.3-4.1l10.2-13.1c1.2-1.5,1.1-3.6-0.2-4.9l-11.9-11.9
		c-1.3-1.4-3.4-1.5-5-0.3l-13.1,10.2c-1.2,0.9-2.8,1-4.1,0.3c-4.1-2.3-8.6-4.2-13.3-5.5c-1.4-0.4-2.5-1.6-2.7-3.1l-2.1-16.5
		c-0.2-1.9-1.9-3.3-3.7-3.3H91.6c-1.9,0-3.5,1.4-3.7,3.3l-2.1,16.5c-0.2,1.5-1.2,2.7-2.7,3.1c-4.7,1.3-9.2,3.2-13.3,5.5
		c-1.3,0.7-2.9,0.6-4.1-0.3L52.5,35.5c-1.5-1.2-3.6-1.1-4.9,0.2L35.8,47.6c-1.4,1.3-1.5,3.4-0.3,5l10.2,13.1
		c0.9,1.2,1.1,2.8,0.3,4.1c-2.3,4.1-4.2,8.6-5.5,13.3c-0.4,1.4-1.6,2.5-3.1,2.7l-16.5,2.1c-1.9,0.2-3.3,1.9-3.3,3.7v16.8
		c0,1.9,1.4,3.5,3.3,3.7l16.5,2.1c1.5,0.2,2.7,1.2,3.1,2.7c1.3,4.7,3.2,9.2,5.5,13.3c0.7,1.3,0.6,2.9-0.3,4.1l-10.2,13.1
		c-1.2,1.5-1.1,3.6,0.2,4.9l11.9,11.9c1.3,1.4,3.4,1.5,5,0.3l13.1-10.2C66.3,153.8,67.2,153.5,68,153.5L68,153.5z M68,153.5"/>
	<path d="M100,137.5c-20.7,0-37.5-16.8-37.5-37.5S79.3,62.5,100,62.5s37.5,16.8,37.5,37.5S120.7,137.5,100,137.5L100,137.5z M100,70
		c-16.5,0-30,13.5-30,30s13.5,30,30,30s30-13.5,30-30S116.5,70,100,70L100,70z M100,70"/>
</g>
</svg>
